D:\PredSim\limbproperties\Ratio80_downhill30\Ratio80_downhill30_IK_walking_1.5.mot
version=1
nRows=4
nColumns=124
inDegrees=yes
endheader
                time	         pelvis_tilt	         pelvis_list	     pelvis_rotation	           pelvis_tx	           pelvis_ty	           pelvis_tz	       hip_flexion_r	     hip_adduction_r	      hip_rotation_r	        knee_angle_r	       ankle_angle_r	    subtalar_angle_r	         mtp_angle_r	       hip_flexion_l	     hip_adduction_l	      hip_rotation_l	        knee_angle_l	       ankle_angle_l	    subtalar_angle_l	         mtp_angle_l	    lumbar_extension	      lumbar_bending	     lumbar_rotation	          arm_flex_r	           arm_add_r	           arm_rot_r	        elbow_flex_r	          arm_flex_l	           arm_add_l	           arm_rot_l	        elbow_flex_l	glut_med1_r/activation	glut_med2_r/activation	glut_med3_r/activation	glut_min1_r/activation	glut_min2_r/activation	glut_min3_r/activation	semimem_r/activation	semiten_r/activation	bifemlh_r/activation	bifemsh_r/activation	    sar_r/activation	add_long_r/activation	add_brev_r/activation	add_mag1_r/activation	add_mag2_r/activation	add_mag3_r/activation	    tfl_r/activation	   pect_r/activation	   grac_r/activation	glut_max1_r/activation	glut_max2_r/activation	glut_max3_r/activation	iliacus_r/activation	  psoas_r/activation	quad_fem_r/activation	    gem_r/activation	   peri_r/activation	rect_fem_r/activation	vas_med_r/activation	vas_int_r/activation	vas_lat_r/activation	med_gas_r/activation	lat_gas_r/activation	 soleus_r/activation	tib_post_r/activation	flex_dig_r/activation	flex_hal_r/activation	tib_ant_r/activation	per_brev_r/activation	per_long_r/activation	per_tert_r/activation	ext_dig_r/activation	ext_hal_r/activation	glut_med1_l/activation	glut_med2_l/activation	glut_med3_l/activation	glut_min1_l/activation	glut_min2_l/activation	glut_min3_l/activation	semimem_l/activation	semiten_l/activation	bifemlh_l/activation	bifemsh_l/activation	    sar_l/activation	add_long_l/activation	add_brev_l/activation	add_mag1_l/activation	add_mag2_l/activation	add_mag3_l/activation	    tfl_l/activation	   pect_l/activation	   grac_l/activation	glut_max1_l/activation	glut_max2_l/activation	glut_max3_l/activation	iliacus_l/activation	  psoas_l/activation	quad_fem_l/activation	    gem_l/activation	   peri_l/activation	rect_fem_l/activation	vas_med_l/activation	vas_int_l/activation	vas_lat_l/activation	med_gas_l/activation	lat_gas_l/activation	 soleus_l/activation	tib_post_l/activation	flex_dig_l/activation	flex_hal_l/activation	tib_ant_l/activation	per_brev_l/activation	per_long_l/activation	per_tert_l/activation	ext_dig_l/activation	ext_hal_l/activation	 ercspn_r/activation	 ercspn_l/activation	 intobl_r/activation	 intobl_l/activation	 extobl_r/activation	 extobl_l/activation	
          0.40439546	          3.67298453	         -4.43394469	          0.21230399	          0.60659319	          0.83453282	          0.00310335	         30.76453035	          8.82457135	         -0.06587340	        -72.18806302	          7.84562732	          2.74132942	         22.11970693	         38.09659818	         -2.79834367	         -4.45253262	        -16.11883749	         10.27646035	          2.11472366	          0.26228957	          3.19164575	          4.70184916	          1.32494237	          0.19621694	        -14.14866109	         17.08579372	         30.15431006	         -1.11592244	        -13.51695506	         18.22183298	         38.09171368	          0.21313805	          0.12117139	          0.05000015	          0.14713997	          0.10834467	          0.08174091	          0.07647890	          0.05000002	          0.05000003	          0.05000001	          0.05000006	          0.05674306	          0.28017958	          0.10146100	          0.18516533	          0.13446096	          0.05674113	          0.05000167	          0.05000011	          0.07672774	          0.07420903	          0.10433463	          0.05000167	          0.30602016	          0.05000004	          0.05000015	          0.05000015	          0.62271054	          0.50106065	          0.54270789	          0.41880506	          0.06984952	          0.08858157	          0.25876986	          0.13976528	          0.06945905	          0.08786603	          0.07526802	          0.11690655	          0.14363429	          0.05000034	          0.18844817	          0.05000034	          0.05422133	          0.05000152	          0.09297215	          0.05000230	          0.05011897	          0.05000222	          0.22983323	          0.08160128	          0.22013863	          0.09880405	          0.10055825	          0.05000024	          0.05000015	          0.05000017	          0.05000016	          0.07217379	          0.07306788	          0.05000088	          0.05002280	          0.05000020	          0.06849324	          0.09606481	          0.08291725	          0.08291727	          0.10824360	          0.11847162	          0.19533376	          0.05000004	          0.05000003	          0.05000003	          0.05000002	          0.08291726	          0.08291752	          0.06424318	          0.08291720	          0.07306800	          0.08291704	          0.35156908	          0.05673994	          0.14844178	          0.16235918	          0.50606577	          0.28204891	          0.06003565	          0.10068317	          0.05000000	          0.06438837	          0.05000000	          0.05000001	
          0.41248337	          3.68976661	         -4.56547247	          0.10273249	          0.62053618	          0.83334014	          0.00303757	         30.57093174	          8.85441690	         -0.22331423	        -73.43268294	          7.03884491	          3.17580026	         22.76054088	         37.92316679	         -2.93372156	         -4.31824174	        -15.94484393	          9.44916546	          2.17347691	          0.29298894	          3.31166809	          4.65739625	          1.38327212	         -0.06080429	        -14.19792695	         16.98866305	         30.28478449	         -1.37959725	        -13.55978481	         18.13068376	         38.25726604	          0.18782018	          0.10677790	          0.05000033	          0.12966177	          0.09547483	          0.07203129	          0.08280025	          0.05000003	          0.05000004	          0.05000001	          0.05000005	          0.05000373	          0.33521347	          0.17355206	          0.23782633	          0.13750528	          0.05000116	          0.05000092	          0.05000012	          0.08992676	          0.09084797	          0.12663404	          0.11810797	          0.35384224	          0.05000007	          0.05000018	          0.05000010	          0.65382397	          0.44154152	          0.47824164	          0.36905676	          0.06439393	          0.08291444	          0.22803155	          0.12316309	          0.06120861	          0.07742955	          0.12211300	          0.13854744	          0.15023860	          0.05000047	          0.23505215	          0.05000045	          0.07597603	          0.05000018	          0.18479836	          0.05000008	          0.05000016	          0.05674033	          0.22196496	          0.07482955	          0.21988457	          0.08706749	          0.08861333	          0.05000003	          0.05000002	          0.05000004	          0.05000002	          0.10845880	          0.06438845	          0.05000038	          0.06679153	          0.05000041	          0.11774327	          0.15529527	          0.07306784	          0.07306785	          0.09538576	          0.10439891	          0.23989240	          0.05000002	          0.05000001	          0.05000000	          0.05000000	          0.07306783	          0.07306806	          0.06438837	          0.07306781	          0.06438866	          0.07306780	          0.31212074	          0.05000002	          0.13080974	          0.14307314	          0.49717327	          0.24854559	          0.06576671	          0.09310810	          0.05000000	          0.05673992	          0.05000000	          0.05000001	
          0.42057128	          3.70939438	         -4.66630835	          0.00109753	          0.63454804	          0.83191990	          0.00296678	         30.43340868	          8.84965479	         -0.37905269	        -74.76973579	          6.20986372	          3.59071179	         23.10211067	         37.84799130	         -3.05269782	         -4.17568001	        -16.32245140	          8.06390762	          2.23600506	          0.32499819	          3.42622596	          4.57365626	          1.43394969	         -0.31594810	        -14.24462552	         16.89798987	         30.41534981	         -1.62648803	        -13.61512316	         18.05863664	         38.38892496	          0.16550972	          0.09409416	          0.05000014	          0.11425974	          0.08413374	          0.06347504	          0.08805508	          0.05000002	          0.05000004	          0.05000001	          0.05000025	          0.05673991	          0.34550931	          0.15293674	          0.22489836	          0.12117187	          0.05000007	          0.05001042	          0.05000006	          0.08291712	          0.09409430	          0.13287105	          0.17837760	          0.39416980	          0.13129215	          0.05000072	          0.05674006	          0.67767174	          0.38909245	          0.42143310	          0.32521789	          0.05990271	          0.07306775	          0.20094454	          0.10853301	          0.05394056	          0.06984785	          0.16900605	          0.12209010	          0.13862061	          0.05000117	          0.28411429	          0.05000011	          0.07314652	          0.10138202	          0.32671897	          0.05673993	          0.05673990	          0.05000055	          0.19559858	          0.06594084	          0.20094464	          0.07672507	          0.07808729	          0.06438837	          0.06438833	          0.05000013	          0.16426990	          0.17025642	          0.05674000	          0.06438833	          0.05885781	          0.05000010	          0.19383512	          0.26020875	          0.06438839	          0.06438839	          0.08405526	          0.15604586	          0.33339924	          0.05000012	          0.05000005	          0.05000007	          0.05000007	          0.06438838	          0.06438858	          0.05673992	          0.06438836	          0.05674019	          0.06438836	          0.47310849	          0.20370606	          0.17372985	          0.12607804	          0.67331813	          0.31127200	          0.08931437	          0.08204816	          0.05000000	          0.05000000	          0.05000000	          0.05000005	
          0.42865919	          3.73158819	         -4.72950097	         -0.09286822	          0.64857929	          0.83031182	          0.00288437	         30.35054981	          8.79765936	         -0.54077602	        -76.18738275	          5.38434542	          3.98829043	         23.07035682	         37.88882487	         -3.15823258	         -4.01918528	        -17.39051435	          6.14360034	          2.31028126	          0.35466048	          3.53277415	          4.44704962	          1.47978191	         -0.55890697	        -14.28556405	         16.81655768	         30.52854888	         -1.84359889	        -13.67872540	         18.01337561	         38.46530846	          0.14584944	          0.08291707	          0.05673997	          0.10068726	          0.07413982	          0.05593519	          0.09089331	          0.05000004	          0.05000014	          0.05000001	          0.05000005	          0.05000008	          0.55188767	          0.21718817	          0.19818366	          0.10677833	          0.05000022	          0.05000031	          0.05000011	          0.07306781	          0.08291721	          0.11708780	          0.25484319	          0.44571732	          0.33622761	          0.05673975	          0.05000039	          0.71074358	          0.34287361	          0.37137263	          0.28658647	          0.05437715	          0.06438842	          0.17707508	          0.09564079	          0.05673990	          0.06155233	          0.23389829	          0.10758750	          0.12215444	          0.05000007	          0.33704322	          0.05000038	          0.19068480	          0.29934293	          0.49565763	          0.05000002	          0.05000002	          0.32910724	          0.17236415	          0.05810802	          0.17707518	          0.06761119	          0.06881160	          0.05673992	          0.05673992	          0.11927765	          0.21771878	          0.20930089	          0.05000015	          0.05673995	          0.06438856	          0.23032659	          0.26976558	          0.33189585	          0.05673993	          0.05673994	          0.25489509	          0.13750978	          0.34848864	          0.05673990	          0.14146415	          0.14507301	          0.13653594	          0.05673992	          0.05674010	          0.05000000	          0.05673991	          0.05000025	          0.05673992	          0.65768349	          0.28549256	          0.17814984	          0.43222102	          0.78775783	          0.55253979	          0.12951119	          0.07230196	          0.05000004	          0.05000000	          0.05000000	          0.05000000	
